<?xml version="1.0" encoding="utf-8"?>
<!-- Generator: Adobe Illustrator 25.2.1, SVG Export Plug-In . SVG Version: 6.00 Build 0)  -->
<svg version="1.1" id="Layer_1" xmlns="http://www.w3.org/2000/svg" xmlns:xlink="http://www.w3.org/1999/xlink" x="0px" y="0px"
	 viewBox="0 0 40 40" style="enable-background:new 0 0 40 40;" xml:space="preserve">
<style type="text/css">
	.st0{fill:#2B2B2B;}
</style>
<path id="Icon_-_Bag-2" class="st0" d="M11.4,14.6L9.6,30.3c0,0.2,0,0.4,0.2,0.5C9.9,31,10.1,31,10.2,31h19.5c0.2,0,0.4-0.1,0.5-0.2
	c0.1-0.1,0.2-0.3,0.2-0.5l-1.7-15.7c0-0.3-0.3-0.6-0.6-0.6h-2.8C25,11.2,22.7,9.1,20,9c-2.8,0.1-5,2.2-5.3,5H12
	C11.7,14,11.4,14.2,11.4,14.6z M20,10.3c2.1,0.1,3.8,1.6,4,3.7h-8C16.2,11.9,17.9,10.4,20,10.3L20,10.3z M15.3,15.3h12.2l1.6,14.4
	H10.9l1.6-14.4L15.3,15.3z"/>
</svg>
