<?xml version="1.0" encoding="utf-8"?>
<!-- Generator: Adobe Illustrator 25.2.1, SVG Export Plug-In . SVG Version: 6.00 Build 0)  -->
<svg version="1.1" id="Layer_1" xmlns="http://www.w3.org/2000/svg" xmlns:xlink="http://www.w3.org/1999/xlink" x="0px" y="0px"
	 viewBox="0 0 50 50" style="enable-background:new 0 0 50 50;" xml:space="preserve">
<path id="facebook_2_" d="M39.7,7.8H9.8c-1,0-1.9,0.8-1.9,1.9c0,0,0,0,0,0v29.9c0,1,0.8,1.9,1.9,1.9c0,0,0,0,0,0h16.1v-13h-4.4v-5.1
	h4.4v-3.7c0-4.3,2.7-6.7,6.5-6.7c1.3,0,2.6,0.1,3.9,0.2v4.5h-2.7c-2.1,0-2.5,1-2.5,2.5v3.2h5l-0.7,5.1h-4.4v13h8.6
	c1,0,1.9-0.8,1.9-1.9c0,0,0,0,0,0l0,0V9.7C41.5,8.7,40.7,7.8,39.7,7.8z"/>
</svg>
