<?xml version="1.0" encoding="utf-8"?>
<!-- Generator: Adobe Illustrator 25.2.1, SVG Export Plug-In . SVG Version: 6.00 Build 0)  -->
<svg version="1.1" id="Layer_1" xmlns="http://www.w3.org/2000/svg" xmlns:xlink="http://www.w3.org/1999/xlink" x="0px" y="0px"
	 viewBox="0 0 320 128" style="enable-background:new 0 0 320 128;" xml:space="preserve">
<style type="text/css">
	.st0{clip-path:url(#XMLID_13_);}
	.st1{fill:#2B2B2B;}
</style>
<g id="XMLID_2_">
	<defs>
		<rect id="XMLID_11_" x="26.5" y="27" width="265" height="80"/>
	</defs>
	<clipPath id="XMLID_13_">
		<use xlink:href="#XMLID_11_"  style="overflow:visible;"/>
	</clipPath>
	<g id="Group_90" class="st0">
		<path id="Path_201" class="st1" d="M43.2,34.5c-1.2-1.5-3-2.4-4.9-2.4c-2.4,0-4.2,1.5-4.2,3.3c0,1.6,1,2.5,4.6,3.8
			c3.3,1.2,4.7,1.8,6,3c1.8,1.6,2.8,3.9,2.7,6.3c0,5.9-4.2,9.9-10.5,9.9c-4.4,0-7.6-1.8-10.3-5.7l3.8-3.6c1.2,2.4,3.6,4,6.3,4
			c2.7,0,4.6-1.8,4.6-4.2c0-1.3-0.7-2.4-1.8-3.1c-1.3-0.7-2.7-1.3-4.1-1.7c-5.4-2-7.4-4.1-7.4-8c0-5,4-8.7,9.4-8.7
			c3.3,0,6.4,1.1,8.8,3.3L43.2,34.5z"/>
		<path id="Path_202" class="st1" d="M76.4,44.8c0,3,0.2,4,1,5.3c2,2.9,6,3.6,8.9,1.6c0.6-0.4,1.2-1,1.6-1.6
			c0.8-1.3,0.9-2.3,0.9-5.3l0-17.1l5.9,0l0,18.3c0,3.5-0.7,6-2.2,8c-2.1,2.7-5.8,4.3-9.9,4.3s-7.8-1.6-9.9-4.3c-1.5-2-2.2-4.5-2.2-8
			l0-18.3l5.9,0L76.4,44.8z"/>
		<path id="Path_203" class="st1" d="M121.1,27.1h4l8.2,19.5l8.5-19.5h4.1l5,30.4l-5.9,0l-2.7-18.4l-8.2,18.8h-1.6l-8-18.8l-3,18.4
			l-5.9,0L121.1,27.1z"/>
		<path id="Path_204" class="st1" d="M175.8,27h4l8.2,19.5l8.5-19.5h4.1l5,30.4l-5.9,0L197,39l-8.2,18.8h-1.6l-8-18.8l-3,18.4
			l-5.9,0L175.8,27z"/>
		<path id="Path_205" class="st1" d="M234.9,32.6l0,6.6l10.4,0l0,5.1l-10.4,0l0,8.1l10.8,0l0,5.1l-16.7,0l0-29.9l16.7,0l0,5.1
			L234.9,32.6z"/>
		<path id="Path_206" class="st1" d="M291.5,57.4h-7.2l-8.1-12h-0.8v12h-5.9V27.6h8.7c3.3,0,6,0.7,7.7,2.1c1.9,1.7,3,4.1,3,6.7
			c0.1,2.5-1,5-2.8,6.7c-1.2,0.9-2.5,1.5-4,1.7L291.5,57.4z M277.1,41.3c3.7,0,5.7-1.6,5.7-4.6s-1.9-4.5-5.6-4.5h-1.8v9L277.1,41.3z
			"/>
		<path id="Path_207" class="st1" d="M34.8,81.6l0,6.6l9.4,0l0,5.1l-9.4,0l0,13.1l-5.9,0l0-29.9l15.9,0l0,5.1L34.8,81.6z"/>
		<path id="Path_208" class="st1" d="M91.5,106.4l-7.2,0l-8.1-12h-0.8l0,12l-5.9,0l0-29.9l8.7,0c3.3,0,6,0.7,7.7,2.1
			c3.7,3.4,4,9.3,0.6,13c-0.1,0.1-0.3,0.3-0.4,0.4c-1.2,0.9-2.5,1.5-4,1.8L91.5,106.4z M77.1,90.3c3.7,0,5.7-1.6,5.7-4.6
			s-1.9-4.5-5.6-4.5h-1.8l0,9H77.1z"/>
		
			<rect id="Rectangle_148" x="111" y="76.5" transform="matrix(1 -1.117010e-03 1.117010e-03 1 -0.102 0.1273)" class="st1" width="5.9" height="29.9"/>
		<path id="Path_209" class="st1" d="M139.3,76.4l8.6,0c4.4,0,7.9,1.1,10.8,3.4c3.4,2.8,5.4,7,5.4,11.5c0,4.5-2,8.7-5.4,11.5
			c-2.9,2.4-6.2,3.5-10.7,3.5l-8.6,0L139.3,76.4z M146.8,101.2c3.8,0,6.2-0.7,8-2.4c2.1-1.9,3.3-4.7,3.2-7.5c0-2.8-1.2-5.5-3.3-7.4
			c-1.9-1.7-4.2-2.4-8-2.4h-1.6l0,19.7H146.8z"/>
		<path id="Path_210" class="st1" d="M189,99.9l-2.7,6.3l-6.2,0l13-30.5h4.4l12.7,30.5l-6.3,0l-2.6-6.3L189,99.9z M195.3,84.5
			l-4.4,10.7l8.6,0L195.3,84.5z"/>
		<path id="Path_211" class="st1" d="M225.2,76.4l6.9,0l6.5,10.4l6.4-10.4l7,0l-10.5,16.2l0,13.7l-5.9,0l0-13.7L225.2,76.4z"/>
		<path id="Path_212" class="st1" d="M284.3,83.2c-1.2-1.5-3-2.4-4.9-2.4c-2.4,0-4.2,1.5-4.2,3.3c0,1.6,1,2.5,4.6,3.8
			c3.3,1.2,4.6,1.8,6,3c1.8,1.6,2.8,3.9,2.7,6.3c0,5.9-4.2,9.8-10.5,9.8c-4.4,0-7.6-1.8-10.3-5.7l3.8-3.6c1.2,2.4,3.6,4,6.3,4
			c2.7,0,4.7-1.7,4.7-4.2c0-1.3-0.7-2.4-1.8-3.1c-1.3-0.7-2.7-1.3-4.1-1.7c-5.4-2-7.4-4.1-7.4-8.1c0-5,4-8.7,9.4-8.7
			c3.3,0,6.4,1.2,8.8,3.3L284.3,83.2z"/>
	</g>
</g>
</svg>
