<?xml version="1.0" encoding="utf-8"?>
<!-- Generator: Adobe Illustrator 25.2.1, SVG Export Plug-In . SVG Version: 6.00 Build 0)  -->
<svg version="1.1" id="Layer_1" xmlns="http://www.w3.org/2000/svg" xmlns:xlink="http://www.w3.org/1999/xlink" x="0px" y="0px"
	 viewBox="0 0 50 50" style="enable-background:new 0 0 50 50;" xml:space="preserve">
<g id="instagram_1_" transform="translate(0)">
	<path id="Path_213" d="M41.5,17.7c0-1.4-0.3-2.8-0.8-4.1c-0.9-2.3-2.7-4-4.9-4.9c-1.3-0.5-2.7-0.8-4.1-0.8
		c-1.8-0.1-2.4-0.1-6.9-0.1s-5.1,0-6.9,0.1c-1.4,0-2.8,0.3-4.1,0.8c-1.1,0.4-2.1,1.1-3,1.9c-0.9,0.8-1.5,1.9-1.9,3
		C8.3,14.9,8,16.3,8,17.7c-0.1,1.8-0.1,2.4-0.1,6.9s0,5.1,0.1,6.9c0,1.4,0.3,2.8,0.8,4.1c0.9,2.3,2.7,4,4.9,4.9
		c1.3,0.5,2.7,0.8,4.1,0.8c1.8,0.1,2.4,0.1,6.9,0.1s5.1,0,6.9-0.1c1.4,0,2.8-0.3,4.1-0.8c2.3-0.9,4-2.7,4.9-4.9
		c0.5-1.3,0.8-2.7,0.8-4.1c0.1-1.8,0.1-2.4,0.1-6.9S41.5,19.5,41.5,17.7z M38.4,31.5c0,1.1-0.2,2.1-0.6,3.1
		c-0.6,1.5-1.7,2.6-3.2,3.2c-1,0.4-2.1,0.6-3.1,0.6c-1.8,0.1-2.3,0.1-6.8,0.1s-5,0-6.8-0.1c-1.1,0-2.1-0.2-3.1-0.6
		c-0.7-0.3-1.4-0.7-1.9-1.3c-0.6-0.5-1-1.2-1.3-1.9c-0.4-1-0.6-2.1-0.6-3.1C11,29.7,11,29.2,11,24.7s0-5,0.1-6.8
		c0-1.1,0.2-2.1,0.6-3.1c0.3-0.7,0.7-1.4,1.3-1.9c0.5-0.6,1.2-1,1.9-1.3c1-0.4,2.1-0.6,3.1-0.6c1.8-0.1,2.3-0.1,6.8-0.1s5,0,6.8,0.1
		c1.1,0,2.1,0.2,3.1,0.6c0.7,0.3,1.4,0.7,1.9,1.3c0.6,0.5,1,1.2,1.3,1.9c0.4,1,0.6,2.1,0.6,3.1c0.1,1.8,0.1,2.3,0.1,6.8
		S38.5,29.7,38.4,31.5z"/>
	<path id="Path_214" d="M24.7,17c-4.2,0-7.7,3.4-7.7,7.7c0,4.2,3.4,7.7,7.7,7.7c4.2,0,7.7-3.4,7.7-7.7v0C32.4,20.4,29,17,24.7,17z
		 M24.7,29.6c-2.8,0-5-2.2-5-5c0-2.8,2.2-5,5-5c2.8,0,5,2.2,5,5C29.7,27.4,27.5,29.6,24.7,29.6z"/>
	<path id="Path_215" d="M35.8,15.8c0,1.2-1,2.3-2.3,2.3c-1.2,0-2.3-1-2.3-2.3c0-1.2,1-2.3,2.3-2.3C34.8,13.6,35.8,14.6,35.8,15.8
		C35.8,15.8,35.8,15.8,35.8,15.8z"/>
</g>
</svg>
