<?xml version="1.0" encoding="utf-8"?>
<!-- Generator: Adobe Illustrator 25.2.1, SVG Export Plug-In . SVG Version: 6.00 Build 0)  -->
<svg version="1.1" id="Layer_1" xmlns="http://www.w3.org/2000/svg" xmlns:xlink="http://www.w3.org/1999/xlink" x="0px" y="0px"
	 viewBox="0 0 40 40" style="enable-background:new 0 0 40 40;" xml:space="preserve">
<style type="text/css">
	.st0{fill:#2B2B2B;}
</style>
<g id="Search" transform="translate(-9.25 -9.25)">
	<g id="search_5_" transform="translate(10 10)">
		<g id="Ellipse_22">
			<path class="st0" d="M18.2,26.2c-4.4,0-8-3.6-8-8s3.6-8,8-8c4.4,0,8,3.6,8,8S22.6,26.2,18.2,26.2z M18.2,11.7
				c-3.6,0-6.5,2.9-6.5,6.5s2.9,6.5,6.5,6.5c3.6,0,6.5-2.9,6.5-6.5S21.7,11.7,18.2,11.7z"/>
		</g>
		<g id="Line_7">
			<path class="st0" d="M28.4,29.2c-0.2,0-0.4-0.1-0.5-0.2l-5-5c-0.3-0.3-0.3-0.8,0-1.1s0.8-0.3,1.1,0l5,5c0.3,0.3,0.3,0.8,0,1.1
				C28.8,29.2,28.6,29.2,28.4,29.2z"/>
		</g>
	</g>
</g>
</svg>
