<?xml version="1.0" encoding="utf-8"?>
<!-- Generator: Adobe Illustrator 25.2.1, SVG Export Plug-In . SVG Version: 6.00 Build 0)  -->
<svg version="1.1" id="Layer_1" xmlns="http://www.w3.org/2000/svg" xmlns:xlink="http://www.w3.org/1999/xlink" x="0px" y="0px"
	 viewBox="0 0 300 45" style="enable-background:new 0 0 300 45;" xml:space="preserve">
<g>
	<path d="M30.5,19.1c-1-0.9-1.8-1-2.2-1c-0.4,0-0.9,0.1-1.3,0.5c-0.2,0.2-0.3,0.5-0.3,0.8c0,0.3,0.1,0.6,0.3,0.7
		c0.3,0.3,0.8,0.4,1.7,0.8l1,0.4c0.6,0.2,1.3,0.5,1.8,1c0.8,0.7,1,1.7,1,2.5c0,1.4-0.5,2.6-1.2,3.3c-1.2,1.2-2.9,1.3-3.7,1.3
		c-1,0-1.8-0.1-2.6-0.6c-0.7-0.3-1.4-1-1.9-1.4l1.6-2.2c0.3,0.3,0.9,0.8,1.2,1c0.5,0.3,1.1,0.5,1.7,0.5c0.4,0,1-0.1,1.4-0.5
		c0.3-0.2,0.5-0.6,0.5-1.1c0-0.4-0.2-0.7-0.5-1c-0.4-0.3-1.2-0.6-1.5-0.7l-1.1-0.4c-0.6-0.2-1.3-0.5-1.8-1.1
		c-0.7-0.7-0.8-1.7-0.8-2.3c0-1.2,0.4-2.2,1.2-3c0.9-1,2-1.2,3.3-1.2c0.9,0,2.4,0.2,3.9,1.3L30.5,19.1z"/>
	<path d="M53.3,23.7c0,1.3-0.2,2.8-1.5,4.2c-1.3,1.3-2.7,1.5-4.1,1.5s-2.9-0.2-4.1-1.5c-1.3-1.3-1.5-2.9-1.5-4.2v-7.8h3.1v7.8
		c0,0.6,0,1.5,0.7,2.2c0.5,0.6,1.3,0.7,1.8,0.7s1.3-0.1,1.8-0.7c0.7-0.7,0.7-1.6,0.7-2.2v-7.8h3.1V23.7z"/>
	<path d="M63.9,29.1L66,15.9h2.5l3.3,7.9l3.3-7.9h2.5l2.1,13.2h-3.1l-1.1-7.9l-3.3,7.9h-1.1L68,21.2l-1.1,7.9H63.9z"/>
	<path d="M89.4,29.1l2.1-13.2h2.5l3.3,7.9l3.3-7.9h2.5l2.1,13.2h-3.1l-1.1-7.9l-3.3,7.9h-1.1l-3.3-7.9l-1.1,7.9H89.4z"/>
	<path d="M123,18.5h-4.4V21h4.2v2.6h-4.2v2.9h4.4v2.6h-7.5V15.9h7.5V18.5z"/>
	<path d="M137.7,15.9c1.7,0,2.7,0.6,3.4,1.2c0.6,0.5,1.2,1.5,1.2,3c0,0.8-0.2,1.9-1,2.7c-0.5,0.4-1.1,0.8-1.8,1l4.1,5.4h-3.7
		l-3.6-5.2v5.2H133V15.9H137.7z M136.1,21.9h0.7c0.6,0,1.3-0.1,1.8-0.6c0.2-0.2,0.5-0.6,0.5-1.3c0-0.8-0.4-1.2-0.6-1.3
		c-0.5-0.4-1.3-0.4-1.7-0.4h-0.7V21.9z"/>
	<path d="M167,18.5h-4.3V21h4v2.6h-4v5.5h-3.1V15.9h7.3V18.5z"/>
	<path d="M181.8,15.9c1.7,0,2.7,0.6,3.4,1.2c0.6,0.5,1.2,1.5,1.2,3c0,0.8-0.2,1.9-1,2.7c-0.5,0.4-1.1,0.8-1.8,1l4.1,5.4h-3.7
		l-3.6-5.2v5.2h-3.1V15.9H181.8z M180.2,21.9h0.7c0.6,0,1.3-0.1,1.8-0.6c0.2-0.2,0.5-0.6,0.5-1.3c0-0.8-0.4-1.2-0.6-1.3
		c-0.5-0.4-1.3-0.4-1.7-0.4h-0.7V21.9z"/>
	<path d="M198.6,15.9v13.2h-3.1V15.9H198.6z"/>
	<path d="M213.3,15.9c1.7,0,3.6,0.3,5.2,1.8c1.2,1.1,1.9,2.7,1.9,4.7c0,2.1-0.7,3.6-1.8,4.7c-1.8,1.8-4.1,2-5.2,2h-4.3V15.9H213.3z
		 M212.2,26.5h0.8c0.6,0,2-0.1,3-0.9c0.7-0.6,1.3-1.7,1.3-3.2c0-1.4-0.6-2.3-1.1-2.9c-1-1-2.3-1.1-3.2-1.1h-0.8V26.5z"/>
	<path d="M237.4,26.6h-5l-1,2.5h-3.2l5.3-13.2h2.8l5.2,13.2h-3.2L237.4,26.6z M236.6,24.3l-1.6-4.4l-1.6,4.4H236.6z"/>
	<path d="M252.5,22.9l-4.7-7.1h3.6L254,20l2.7-4.1h3.6l-4.7,7.1v6.2h-3.1V22.9z"/>
	<path d="M275.2,19.1c-1-0.9-1.8-1-2.2-1c-0.4,0-0.9,0.1-1.3,0.5c-0.2,0.2-0.3,0.5-0.3,0.8c0,0.3,0.1,0.6,0.3,0.7
		c0.3,0.3,0.8,0.4,1.7,0.8l1,0.4c0.6,0.2,1.3,0.5,1.8,1c0.8,0.7,1,1.7,1,2.5c0,1.4-0.5,2.6-1.2,3.3c-1.2,1.2-2.9,1.3-3.7,1.3
		c-1,0-1.8-0.1-2.6-0.6c-0.7-0.3-1.4-1-1.9-1.4l1.6-2.2c0.3,0.3,0.9,0.8,1.2,1c0.5,0.3,1.1,0.5,1.7,0.5c0.4,0,1-0.1,1.4-0.5
		c0.3-0.2,0.5-0.6,0.5-1.1c0-0.4-0.2-0.7-0.5-1c-0.4-0.3-1.2-0.6-1.5-0.7l-1.1-0.4c-0.6-0.2-1.3-0.5-1.8-1.1
		c-0.7-0.7-0.8-1.7-0.8-2.3c0-1.2,0.4-2.2,1.2-3c0.9-1,2-1.2,3.3-1.2c0.9,0,2.4,0.2,3.9,1.3L275.2,19.1z"/>
</g>
</svg>
