<?xml version="1.0" encoding="utf-8"?>
<!-- Generator: Adobe Illustrator 25.2.1, SVG Export Plug-In . SVG Version: 6.00 Build 0)  -->
<svg version="1.1" id="Layer_1" xmlns="http://www.w3.org/2000/svg" xmlns:xlink="http://www.w3.org/1999/xlink" x="0px" y="0px"
	 viewBox="0 0 337 50" style="enable-background:new 0 0 337 50;" xml:space="preserve">
<style type="text/css">
	.st0{clip-path:url(#SVGID_2_);}
	.st1{fill:#2B2B2B;}
</style>
<g>
	<defs>
		<rect id="SVGID_1_" x="16.2" y="16" width="304.7" height="18"/>
	</defs>
	<clipPath id="SVGID_2_">
		<use xlink:href="#SVGID_1_"  style="overflow:visible;"/>
	</clipPath>
	<g id="Logo_Header" class="st0">
		<path id="Path_188" class="st1" d="M25.7,20.3c-0.7-0.9-1.7-1.4-2.8-1.4c-1.2-0.1-2.3,0.7-2.4,1.9c0,0.9,0.6,1.4,2.6,2.2
			c1.2,0.3,2.4,0.9,3.4,1.7c1,0.9,1.6,2.2,1.5,3.6c0,3.4-2.4,5.7-6,5.7c-2.4,0-4.7-1.2-5.9-3.3l2.2-2.1c0.7,1.4,2.1,2.3,3.6,2.3
			c1.4,0.1,2.5-0.9,2.7-2.2c0-0.1,0-0.1,0-0.2c0-0.7-0.4-1.4-1-1.8c-0.7-0.4-1.5-0.7-2.3-1c-3.1-1.1-4.2-2.4-4.2-4.7
			c0-2.8,2.3-5,5.1-5c0.1,0,0.2,0,0.3,0c1.9,0,3.7,0.7,5.1,1.9L25.7,20.3z"/>
		<path id="Path_189" class="st1" d="M42.6,26.2c0,1.8,0.1,2.3,0.5,3.1c1.1,1.7,3.4,2.1,5.1,1c0.4-0.3,0.7-0.6,1-1
			c0.4-0.8,0.5-1.3,0.5-3.1v-9.9h3.4v10.5c0.1,1.6-0.3,3.3-1.3,4.6c-2.9,3.1-7.7,3.3-10.9,0.4c-0.2-0.1-0.3-0.3-0.4-0.4
			c-0.9-1.3-1.4-3-1.3-4.6V16.4h3.4L42.6,26.2z"/>
		<path id="Path_190" class="st1" d="M67.6,16h2.3l4.7,11.3L79.5,16h2.3l2.9,17.5h-3.4L79.7,23L75,33.8h-0.9L69.5,23l-1.7,10.6h-3.4
			L67.6,16z"/>
		<path id="Path_191" class="st1" d="M98.3,16h2.3l4.7,11.3l4.9-11.3h2.3l2.9,17.5H112L110.4,23l-4.7,10.8h-0.9L100.2,23l-1.7,10.6
			h-3.4L98.3,16z"/>
		<path id="Path_192" class="st1" d="M130,19.3v3.8h5.9V26H130v4.6h6.2v2.9h-9.5V16.4h9.5v2.9H130z"/>
		<path id="Path_193" class="st1" d="M160.3,33.6h-4.1l-4.6-6.9h-0.4v6.9h-3.4V16.4h5c1.6-0.1,3.1,0.3,4.4,1.2
			c1.1,1,1.7,2.4,1.7,3.9c0,1.5-0.5,2.9-1.6,3.9c-0.7,0.5-1.5,0.9-2.3,1L160.3,33.6z M152.1,24.3c2.1,0,3.3-0.9,3.3-2.6
			s-1.1-2.6-3.2-2.6h-1v5.2L152.1,24.3z"/>
		<path id="Path_194" class="st1" d="M183.2,19.3v3.8h5.4V26h-5.4v7.6h-3.4V16.4h9.1v2.9H183.2z"/>
		<path id="Path_195" class="st1" d="M212.8,33.6h-4.1l-4.6-6.9h-0.4v6.9h-3.4V16.4h5c1.6-0.1,3.1,0.3,4.4,1.2
			c1.1,1,1.7,2.4,1.7,3.9c0,1.5-0.5,2.9-1.6,3.9c-0.7,0.5-1.5,0.9-2.3,1L212.8,33.6z M204.5,24.3c2.1,0,3.3-0.9,3.3-2.6
			s-1.1-2.6-3.2-2.6h-1v5.2L204.5,24.3z"/>
		<rect id="Rectangle_68" x="223.3" y="16.4" class="st1" width="3.4" height="17.2"/>
		<path id="Path_196" class="st1" d="M238.9,16.4h4.9c2.2-0.1,4.4,0.6,6.2,2c2,1.6,3.1,4.1,3.1,6.6c0,2.6-1.2,5-3.1,6.6
			c-1.7,1.4-3.9,2.1-6.1,2h-4.9V16.4z M243.1,30.7c2.2,0,3.5-0.4,4.6-1.4c1.2-1.1,1.9-2.7,1.9-4.3c0-1.6-0.7-3.2-1.9-4.3
			c-1.1-1-2.4-1.4-4.6-1.4h-0.9v11.4L243.1,30.7z"/>
		<path id="Path_197" class="st1" d="M266.7,29.9l-1.5,3.6h-3.6L269,16h2.5l7.2,17.6h-3.6l-1.5-3.6H266.7z M270.3,21l-2.5,6.2h4.9
			L270.3,21z"/>
		<path id="Path_198" class="st1" d="M285.3,16.4h4l3.7,6l3.6-6h4l-6,9.3v7.9h-3.4v-7.9L285.3,16.4z"/>
		<path id="Path_199" class="st1" d="M318.5,20.3c-0.7-0.9-1.7-1.4-2.8-1.4c-1.2-0.1-2.3,0.7-2.4,1.9c0,0.9,0.6,1.4,2.6,2.2
			c1.2,0.3,2.4,0.9,3.4,1.7c1,0.9,1.6,2.2,1.5,3.6c0,3.4-2.4,5.7-6,5.7c-2.4,0-4.7-1.2-5.9-3.3l2.2-2.1c0.7,1.4,2.1,2.3,3.6,2.3
			c1.4,0.1,2.5-0.9,2.7-2.2c0-0.1,0-0.1,0-0.2c0-0.7-0.4-1.4-1-1.8c-0.7-0.4-1.5-0.7-2.3-1c-3.1-1.1-4.2-2.4-4.2-4.6
			c0-2.8,2.3-5,5.1-5c0.1,0,0.2,0,0.3,0c1.9,0,3.7,0.7,5.1,1.9L318.5,20.3z"/>
	</g>
</g>
</svg>
