<?xml version="1.0" encoding="utf-8"?>
<!-- Generator: Adobe Illustrator 25.2.1, SVG Export Plug-In . SVG Version: 6.00 Build 0)  -->
<svg version="1.1" id="Layer_1" xmlns="http://www.w3.org/2000/svg" xmlns:xlink="http://www.w3.org/1999/xlink" x="0px" y="0px"
	 viewBox="0 0 50 50" style="enable-background:new 0 0 50 50;" xml:space="preserve">
<path id="twitter_2_" d="M17.1,41.7C32.6,41.7,41,28.9,41,17.9c0-0.4,0-0.7,0-1.1c1.6-1.2,3.1-2.7,4.2-4.3c-1.5,0.7-3.2,1.1-4.8,1.3
	c1.8-1,3.1-2.7,3.7-4.6c-1.6,1-3.4,1.7-5.3,2c-3.2-3.4-8.5-3.5-11.9-0.4c-2.2,2-3.1,5.1-2.4,8c-6.7-0.3-13-3.5-17.3-8.8
	C4.9,13.9,6,18.8,9.7,21.2c-1.3,0-2.6-0.4-3.8-1c0,0,0,0.1,0,0.1c0,4,2.8,7.4,6.7,8.2c-0.7,0.2-1.5,0.3-2.2,0.3
	c-0.5,0-1.1-0.1-1.6-0.2c1.1,3.4,4.2,5.8,7.8,5.8c-3,2.3-6.6,3.6-10.4,3.6c-0.7,0-1.3,0-2-0.1C8.1,40.4,12.6,41.7,17.1,41.7"/>
</svg>
